# xmcd
#
# Track frame offsets: 
#        150
#        10623
#        22530
#        34423
#        49550
#        63778
#        76645
#        88018
#        100398
#        114075
#        127828
#        139653
#        152933
#        165285
#        183660
#        196448
#        210135
#        222638
#        235260
#        252843
#
# Disc length: 3595 seconds
#
# Revision: 2
# Processed by: cddbd v1.5.1PL0 Copyright (c) Steve Scherf et al.
# Submitted via: ExactAudioCopy v0.90b4
#
DISCID=f20e0914
DTITLE=Little Milton - We're Gonna Make It
DYEAR=1965
DGENRE=Blues
TTITLE0=Ain't No Big Deal On You
TTITLE1=Life Is Like That
TTITLE2=Believe In Me
TTITLE3=Blind Man
TTITLE4=Blues In The Night
TTITLE5=Stand By Me
TTITLE6=Can't Hold Back The Tears
TTITLE7=Country Style
TTITLE8=I'm Gonna Move To The Outskirts Of Town
TTITLE9=Man Loves Two
TTITLE10=We're Gonna Make It
TTITLE11=Who's Cheating Who?
TTITLE12=You're Welcome To The Club
TTITLE13=Feel So Bad
TTITLE14=Fever
TTITLE15=Hard Luck Blues
TTITLE16=Have Mercy, Baby
TTITLE17=More And More
TTITLE18=Part Time Love
TTITLE19=Please, Please, Please
EXTD=
EXTT0=
EXTT1=
EXTT2=
EXTT3=
EXTT4=
EXTT5=
EXTT6=
EXTT7=
EXTT8=
EXTT9=
EXTT10=
EXTT11=
EXTT12=
EXTT13=
EXTT14=
EXTT15=
EXTT16=
EXTT17=
EXTT18=
EXTT19=
PLAYORDER=
